<svg width="314" height="313" xmlns="http://www.w3.org/2000/svg" xmlns:xlink="http://www.w3.org/1999/xlink" overflow="hidden"><defs><clipPath id="clip0"><rect x="297" y="120" width="314" height="313"/></clipPath></defs><g clip-path="url(#clip0)" transform="translate(-297 -120)"><path d="M305.384 198.289C295.466 188.372 295.466 172.292 305.384 162.375L339.843 127.916C349.76 117.998 365.84 117.998 375.757 127.916L602.653 354.812C612.57 364.729 612.57 380.809 602.653 390.726L568.194 425.185C558.276 435.102 542.197 435.102 532.28 425.185Z" fill="#FF0000" fill-rule="evenodd"/><path d="M532.28 127.916C542.197 117.998 558.277 117.998 568.194 127.916L602.653 162.375C612.57 172.292 612.57 188.372 602.653 198.289L375.757 425.185C365.84 435.102 349.76 435.102 339.843 425.185L305.384 390.726C295.466 380.809 295.466 364.729 305.384 354.812Z" fill="#FF0000" fill-rule="evenodd"/></g></svg>